/* XPM */
static char * explosion03_xpm[] = {
"80 79 2 1",
" 	c None",
".	c #000000",
"                                                                                ",
"                                                                                ",
"                                                                                ",
"                                                                                ",
"                                                                                ",
"                                                                                ",
"                                                                                ",
"                                                                                ",
"                                                                                ",
"                                                                                ",
"                                                                                ",
"                                                                                ",
"                                                                                ",
"                                                                                ",
"                                                                                ",
"                                                                                ",
"                                        ..                                      ",
"                                        ..                                      ",
"                                        ...                                     ",
"                                      .....                                     ",
"                                   ............                                 ",
"                             ..................                                 ",
"                            ...................                                 ",
"                          ..........................                            ",
"                          ...........................                           ",
"                          ..............................                        ",
"                          ...............................                       ",
"                          ................................                      ",
"                         .................................                      ",
"                         ................................                       ",
"                          ..............................      ..                ",
"                      ..   ........................................             ",
"                      ..........................................                ",
"                       .......................................                  ",
"                       ......................................                   ",
"                      ........................................                  ",
"                      ........................................                  ",
"                       .......................................                  ",
"                     ..........................................                 ",
"                  .............................................                 ",
"             ..................................................                 ",
"                   ............................................                 ",
"                  .............................................                 ",
"                  .............................................                 ",
"                  .............................................                 ",
"                  .............................................                 ",
"                   ...........................................                  ",
"                   ..........................................                   ",
"                  ...........................................                   ",
"                    ........................................                    ",
"                    ........................................                    ",
"                  ...........................................                   ",
"            .......      ....................................                   ",
"            ...          .....................................                  ",
"                           .............................     ..                 ",
"                            ............................                        ",
"                           ...........................                          ",
"                           ...........................                          ",
"                               ......................                           ",
"                               ......................                           ",
"                               ............... . ...                            ",
"                                .............                                   ",
"                                  ....... ...                                   ",
"                                     ...  ..                                    ",
"                                          ..                                    ",
"                                          ..                                    ",
"                                          ..                                    ",
"                                           .                                    ",
"                                           .                                    ",
"                                           .                                    ",
"                                           .                                    ",
"                                                                                ",
"                                                                                ",
"                                                                                ",
"                                                                                ",
"                                                                                ",
"                                                                                ",
"                                                                                ",
"                                                                                "};
