/* XPM */
static char * explosion06_xpm[] = {
"80 79 2 1",
" 	c None",
".	c #000000",
"                                                                                ",
"                                                                                ",
"                                                                                ",
"                                                                                ",
"                                                                                ",
"                              .....            ....                             ",
"                            ........         .......                            ",
"                       ................    ............                         ",
"                      .................................                         ",
"                      ...................................                       ",
"                     .....................................                      ",
"                     ......................................                     ",
"                    ......................................                      ",
"                   ..........................................                   ",
"                  ..............................................                ",
"                  ...............................................               ",
"                  ................................................              ",
"                 .................................................              ",
"                ...................................................             ",
"              ......................................................            ",
"              ........................................................          ",
"              .........................................................         ",
"             .........................................................          ",
"            ..........................................................          ",
"             ..........................................................         ",
"             ..........................................................         ",
"              .........................................................         ",
"              ........................................................          ",
"                ......................................................          ",
"                .....................................................           ",
"               .....................................................            ",
"             .......................................................            ",
"           ...........................................................          ",
"           ..............................................................       ",
"         ................................................................       ",
"       ...................................................................      ",
"      .....................................................................     ",
"      ....................................................................      ",
"         .................................................................      ",
"         ..................................................................     ",
"         ..................................................................     ",
"         ..................................................................     ",
"          ................................................................      ",
"       ..................................................................       ",
"      ..................................................................        ",
"       ................................................................         ",
"           ............................................................         ",
"             ...........................................................        ",
"               .........................................................        ",
"                .............................................................   ",
"                 .............................................................  ",
"                 ............................................................   ",
"                ............................................................    ",
"                ............................................................    ",
"               ..........................................................       ",
"              .............................................................     ",
"               .............................................................    ",
"                   ........................................................     ",
"                  .......................................................       ",
"                 ........................................................       ",
"                 .......................................................        ",
"                  .......................................................       ",
"                   ...............................................  ....        ",
"                     ...........................................                ",
"                     .........................................                  ",
"                     ........................................                   ",
"                      ..................................                        ",
"                       .................................                        ",
"                        ...............................                         ",
"                         .............................                          ",
"                                  ....................                          ",
"                                   ..................                           ",
"                                  ............... .                             ",
"                                   ...........                                  ",
"                                      ......                                    ",
"                                                                                ",
"                                                                                ",
"                                                                                ",
"                                                                                "};
