/* XPM */
static char * explosion04_xpm[] = {
"80 79 2 1",
" 	c None",
".	c #000000",
"                                                                                ",
"                                                                                ",
"                                                                                ",
"                                                                                ",
"                                                                                ",
"                                                                                ",
"                                                                                ",
"                                                                                ",
"                                                                                ",
"                                                                                ",
"                                                                                ",
"                                                                                ",
"                                                                                ",
"                                                                                ",
"                                                                                ",
"                                             ..                                 ",
"                                            ...                                 ",
"                               .......   ......                                 ",
"                             ...................                                ",
"                           ......................                               ",
"                          .........................                             ",
"                          ............................                          ",
"                         ..................................                     ",
"                         ..................................                     ",
"                         ...................................                    ",
"                         ...................................                    ",
"                          ..................................                    ",
"                          ..................................                    ",
"                          ...................................                   ",
"                          ...................................                   ",
"                        ........................................                ",
"                        ..........................................              ",
"                     ..............................................             ",
"                    ................................................            ",
"                     ................................................           ",
"                    .................................................           ",
"                    ................................................            ",
"                    ................................................            ",
"                   .................................................            ",
"                  .................................................             ",
"                  ................................................              ",
"                 ..................................................             ",
"                ...................................................             ",
"                 ..................................................             ",
"                 ..................................................             ",
"                ...................................................             ",
"                 ..................................................             ",
"                ...................................................             ",
"              .....................................................             ",
"              .....................................................             ",
"              ....................................................              ",
"               ...................................................              ",
"                    ............................................                ",
"                     .........................................                  ",
"                           ..................................                   ",
"                           ..................................                   ",
"                           ..................................                   ",
"                           ..................................                   ",
"                           ...............................                      ",
"                           ................................                     ",
"                            . .............................                     ",
"                               ............................                     ",
"                                .........................                       ",
"                                .....................                           ",
"                                 ................. .                            ",
"                                  ..............                                ",
"                                   .............                                ",
"                                    ...........                                 ",
"                                        ......                                  ",
"                                         .                                      ",
"                                                                                ",
"                                                                                ",
"                                                                                ",
"                                                                                ",
"                                                                                ",
"                                                                                ",
"                                                                                ",
"                                                                                ",
"                                                                                "};
