/* XPM */
static char * bala1_xpm[] = {
"18 18 3 1",
" 	c None",
".	c #14130E",
"+	c #FDF4A9",
"       ....       ",
"     ..++++..     ",
"   ..++....++..   ",
"  .++++++++++++.  ",
" .++++++++++++++. ",
" .++++++++++++++. ",
" .++++++++++++++. ",
".++++++++++++++++.",
".++++++++++++++++.",
".++++++++++++++++.",
".++++++++++++++++.",
" .++++++++++++++. ",
" .++++++++++++++. ",
" .++++++++++++++. ",
"  .++++++++++++.  ",
"   ..++++++++..   ",
"     ..++++..     ",
"       ....       "};
