/* XPM */
static char * explosion07_xpm[] = {
"80 79 2 1",
" 	c None",
".	c #000000",
"                                                                                ",
"                                                                                ",
"                            ...                                                 ",
"                     .. ....... .                                               ",
"                    ..........  .....        ....                               ",
"                   ...........  ..   ..    ............                         ",
"                   ............       ..................                        ",
"                  ............    .     ...................                     ",
"                  ................      ..... ..............                    ",
"                  .......              ...     ..............                   ",
"                 ........              .       ..............                   ",
"                 .........  .                  ..............                   ",
"                      ........               ....    ............               ",
"                       ......        .       ...  .  ............               ",
"             ..  .    ...            .      ..... ................              ",
"            ...       ...                          ...  ...........             ",
"          ......     ....                               ............            ",
"         ...................      .               ..   .... .........           ",
"          ....    .........     .                 ..   ...   ........           ",
"         .....     .........                       .   ...   .. .......         ",
"        ......   .............                         .         ......         ",
"        .....       .........       .                ..         .......         ",
"         ...        .......        .                             ......         ",
"         ...        ...   .                                       .....         ",
"         ...                                                      ...           ",
"         ...                                                   .  ... .         ",
"         ...                                                   .  ... .         ",
"          ..                                                       ....         ",
"           .                                                        ...         ",
"                                                                    ...         ",
"       ......     ....                                             ...   ...    ",
"      .....      ......                                             ...   ..    ",
"       ..        .....                                               ..  ...    ",
"                ..                                                  ........    ",
"               ..                                                   .......     ",
"  ...                                                                 ......    ",
"  ...      ....                                                       ......    ",
"   .     ...........                                                  ......    ",
"    ............                                                     .......    ",
"    ...........                                                       ......    ",
"    ............      ..........                                       .....    ",
"    .......................                                          .....      ",
"   .......................                                        ......        ",
"     . .................                                         ......         ",
"       ................                                          .....          ",
"       ...........   .                                            ....          ",
"       ..........   ..                                           ....           ",
"         .........  ..                                       .   ...            ",
"         .. .....   ..                                           ..             ",
"                .    .                                           ........       ",
"                                                                  ........      ",
"                .   .                                                    ..     ",
"              ........                                                   ..     ",
"              ........                                                   .....  ",
"               .......                                                   ..     ",
"                ....    .                                               ..   .  ",
"               .....                                              ............. ",
"               ..                                             ................. ",
"                .          .                                 .................. ",
"                .....                               .................... ....   ",
"             .     ...                                  ................ ..     ",
"                 ........... .                           .........       ..     ",
"                 .............                       .....      ..   ..  ..     ",
"                 ....   .....                        .....       .   .......    ",
"                  ... .....                        ........           ... .     ",
"                   .   ...                         .......                      ",
"                  .  ......                       ......                        ",
"                    .................        . .........                        ",
"                     ...............         ...........                        ",
"                      .............         .............                       ",
"                          ... .....        .............                        ",
"                           .   ...        .............                         ",
"                                .. ..................                           ",
"                                  ..................                            ",
"                                 ....        ...                                ",
"                                 ....    ...........                            ",
"                                          .........                             ",
"                                               ...                              ",
"                                                                                "};
