/* XPM */
static char * corsinhamask11_xpm[] = {
"80 90 2 1",
" 	c None",
".	c #000000",
"                                                                                ",
"                                                                                ",
"                                                                                ",
"                                                                                ",
"                                                                                ",
"                                                                                ",
"                                                                                ",
"                                                                                ",
"                                                                                ",
"                                                                                ",
"                                                                                ",
"                                                                                ",
"                                                                                ",
"                                                                                ",
"                                                                                ",
"                                                                                ",
"                                                                                ",
"                                                                                ",
"                                                                                ",
"                                                                                ",
"                                                                                ",
"                                                                                ",
"                                                                                ",
"                                                       ....                     ",
"                                                     ..........                 ",
"                                                  .............                 ",
"                                                .................               ",
"                                              ...................               ",
"                                           ........................             ",
"                                         ..........................             ",
"                                        ............................            ",
"                                       .............................            ",
"                          ..        ................................            ",
"                         ....  ......................................           ",
"                          ...........................................           ",
"                         .............................................          ",
"                        ..............................................          ",
"                      ................................................          ",
"                   ....................................................         ",
"                 ......................................................         ",
"              .........................................................         ",
"             ..........................................................         ",
"            ...........................................................         ",
"            ...........................................................         ",
"           ............................................................         ",
"          .............................................................         ",
"          ............................................................          ",
"          ............................................................          ",
"          ............................................................          ",
"          ..........................................................            ",
"          ..........................................................            ",
"          ........................................................              ",
"           .....................................................                ",
"          ...................................................                   ",
"          .................................................                     ",
"           .............................................                        ",
"           ........................................                             ",
"            .....................................                               ",
"            ...................................                                 ",
"            ................................                                    ",
"             ...............................                                    ",
"              ............................                                      ",
"               .........................                                        ",
"               ..........................                                       ",
"                ...................   ...                                       ",
"                 ...............                                                ",
"                   ...........                                                  ",
"                    .......                                                     ",
"                                                                                ",
"                                                                                ",
"                                                                                ",
"                                                                                ",
"                                                                                ",
"                                                                                ",
"                                                                                ",
"                                                                                ",
"                                                                                ",
"                                                                                ",
"                                                                                ",
"                                                                                ",
"                                                                                ",
"                                                                                ",
"                                                                                ",
"                                                                                ",
"                                                                                ",
"                                                                                ",
"                                                                                ",
"                                                                                ",
"                                                                                ",
"                                                                                "};
