/* XPM */
static char * saveiromask09_xpm[] = {
"80 90 2 1",
" 	c None",
".	c #000000",
"                                                                                ",
"                                                                                ",
"                                                                                ",
"                                                                                ",
"                                                                                ",
"                                                                                ",
"                                                                                ",
"                                                                                ",
"                                                                                ",
"                                                                                ",
"                                                                                ",
"                                                                                ",
"                                                                                ",
"                                       ..                                       ",
"                                      ........                                  ",
"                                     ............                               ",
"                                     ..............                             ",
"                                     .................                          ",
"                                    ...................                         ",
"                                    .....................                       ",
"                                   .......................                      ",
"                                   .........................                    ",
"                                  ...........................                   ",
"                                  ............................                  ",
"                                  ............................                  ",
"                                 .............................                  ",
"                                 .............................                  ",
"                                .............................                   ",
"                                .............................                   ",
"                                ............................                    ",
"                               .............................                    ",
"                               .............................                    ",
"                              .............................                     ",
"                              .............................                     ",
"                              ............................                      ",
"                             .............................                      ",
"                             ............................                       ",
"                            .............................                       ",
"                            .............................                       ",
"                            ............................                        ",
"                           .............................                        ",
"                           ............................                         ",
"                          .............................                         ",
"                          .............................                         ",
"                          ............................                          ",
"                         .............................                          ",
"                         ............................                           ",
"                        .............................                           ",
"                        .............................                           ",
"                       .............................                            ",
"                    ................................                            ",
"                    ...............................                             ",
"                    ...............................                             ",
"                     .............................                              ",
"                     .............................                              ",
"                     .............................                              ",
"                     ............................                               ",
"                    .............................                               ",
"                    .............................                               ",
"                    ............................                                ",
"                    ............................                                ",
"                   .............................                                ",
"                   ..............................                               ",
"                  ...............................                               ",
"                  .............................                                 ",
"                  ...........................                                   ",
"                  ...........................                                   ",
"                  ..........................                                    ",
"                   .........................                                    ",
"                    .......................                                     ",
"                      .....................                                     ",
"                        ...................                                     ",
"                          ................                                      ",
"                             .............                                      ",
"                               ..........                                       ",
"                                  ......                                        ",
"                                                                                ",
"                                                                                ",
"                                                                                ",
"                                                                                ",
"                                                                                ",
"                                                                                ",
"                                                                                ",
"                                                                                ",
"                                                                                ",
"                                                                                ",
"                                                                                ",
"                                                                                ",
"                                                                                ",
"                                                                                "};
