/* XPM */
static char * saveiromask08_xpm[] = {
"80 90 2 1",
" 	c None",
".	c #000000",
"                                                                                ",
"                                                                                ",
"                                                                                ",
"                                                                                ",
"                                                                                ",
"                                                                                ",
"                                                                                ",
"                                                                                ",
"                                                                                ",
"                                                                                ",
"                                                                                ",
"                                                                                ",
"                                                                                ",
"                                                                                ",
"                                  ...........                                   ",
"                             .....................                              ",
"                           .........................                            ",
"                           .........................                            ",
"                          ...........................                           ",
"                          ...........................                           ",
"                          ...........................                           ",
"                          ...........................                           ",
"                          ...........................                           ",
"                          ...........................                           ",
"                          ...........................                           ",
"                          ...........................                           ",
"                          ...........................                           ",
"                          ...........................                           ",
"                          ...........................                           ",
"                          ...........................                           ",
"                          ...........................                           ",
"                          ...........................                           ",
"                          ...........................                           ",
"                          ...........................                           ",
"                          ...........................                           ",
"                           ..........................                           ",
"                           ..........................                           ",
"                           ..........................                           ",
"                           ..........................                           ",
"                           ..........................                           ",
"                           ..........................                           ",
"                           ..........................                           ",
"                           ..........................                           ",
"                           ..........................                           ",
"                           ..........................                           ",
"                           ..........................                           ",
"                           ..........................                           ",
"                           ..........................                           ",
"                           ..........................                           ",
"                           ..........................                           ",
"                           ..........................                           ",
"                           ..........................                           ",
"                           ..........................                           ",
"                           ..........................                           ",
"                           ..........................                           ",
"                          ...........................                           ",
"                          ............................                          ",
"                        ...............................                         ",
"                        ...............................                         ",
"                         ..............................                         ",
"                          ...........................                           ",
"                          ...........................                           ",
"                           ..........................                           ",
"                           ..........................                           ",
"                           ..........................                           ",
"                           ..........................                           ",
"                           ..........................                           ",
"                           ..........................                           ",
"                           ..........................                           ",
"                           ..........................                           ",
"                           ..........................                           ",
"                           .........................                            ",
"                            ........................                            ",
"                            .......................                             ",
"                             ......................                             ",
"                               ..................                               ",
"                                                                                ",
"                                                                                ",
"                                                                                ",
"                                                                                ",
"                                                                                ",
"                                                                                ",
"                                                                                ",
"                                                                                ",
"                                                                                ",
"                                                                                ",
"                                                                                ",
"                                                                                ",
"                                                                                ",
"                                                                                "};
