/* XPM */
static char * saveiromask03_xpm[] = {
"80 90 5 1",
" 	c None",
".	c #000000",
"+	c #90969B",
"@	c #9FA9AF",
"#	c #9DA8AC",
"                                                                                ",
"                                                                                ",
"                                                                                ",
"                                                                                ",
"                                                                                ",
"                                                                                ",
"                                                                                ",
"                                                                                ",
"                                                                                ",
"                                                                                ",
"                                                                                ",
"                                                                                ",
"                                                                                ",
"                                                                                ",
"                                                                                ",
"                                                                                ",
"                                                                                ",
"                                                                                ",
"                                                                                ",
"                                                                                ",
"                                                                                ",
"                                                                                ",
"                                                                                ",
"                                                          ...                   ",
"                                                       ........                 ",
"                                                    ............                ",
"                                            +...  ..............                ",
"                                            .....................               ",
"                                            .....................               ",
"                                           ......................               ",
"                                        ..........................              ",
"                                      ............................              ",
"                                   ................................             ",
"                                 ..................................             ",
"                               .....................................            ",
"                            ........................................            ",
"                          @.........................................            ",
"                        #............................................           ",
"                     ................................................           ",
"                   ...................................................          ",
"                ......................................................          ",
"              ........................................................          ",
"            ...........................................................         ",
"         .............................................................          ",
"        ..............................................................          ",
"        ..............................................................          ",
"        ............................................................            ",
"        ..........................................................              ",
"        ........................................................                ",
"         ......................................................                 ",
"         ....................................................                   ",
"         ..................................................                     ",
"         .................................................                      ",
"         .................................................                      ",
"          .........................................     ..                      ",
"          .......................................                               ",
"           ...................................                                  ",
"           .................................                                    ",
"           ..............................                                       ",
"            ...........................                                         ",
"            .........................                                           ",
"             .....................                                              ",
"             ....................                                               ",
"              .................                                                 ",
"               .............                                                    ",
"               ...........                                                      ",
"                .......                                                         ",
"                .....                                                           ",
"                                                                                ",
"                                                                                ",
"                                                                                ",
"                                                                                ",
"                                                                                ",
"                                                                                ",
"                                                                                ",
"                                                                                ",
"                                                                                ",
"                                                                                ",
"                                                                                ",
"                                                                                ",
"                                                                                ",
"                                                                                ",
"                                                                                ",
"                                                                                ",
"                                                                                ",
"                                                                                ",
"                                                                                ",
"                                                                                ",
"                                                                                ",
"                                                                                "};
