/* XPM */
static char * warp04_xpm[] = {
"120 120 9 1",
" 	c None",
".	c #000000",
"+	c #000204",
"@	c #050B0E",
"#	c #000509",
"$	c #03050F",
"%	c #00000F",
"&	c #000004",
"*	c #01020F",
"                                                                                                                        ",
"                                                                                                                        ",
"                                                                                                                        ",
"                                                                                                                        ",
"                                                                                                                        ",
"                                                                                                                        ",
"                                                                                                                        ",
"                                                                                                                        ",
"                                                                                                                        ",
"                                   .........................                                                            ",
"                                  ...........................                                                           ",
"                                  ...........................                                                           ",
"                             .........................................+                                                 ",
"                             ..........................................                                                 ",
"                             ..............................................                                             ",
"                             @..............................................                                            ",
"                                  ..........................................                                            ",
"                                   ...........................................                                          ",
"                                    ..........................................                                          ",
"                                     ..............................................                                     ",
"                                      .............................................                                     ",
"                                       ............   ..............................                                    ",
"                                        ...........   +..............................                                   ",
"                                         ..........        ...........................                                  ",
"                                          .........        ............................                                 ",
"                                          .........        .............................                                ",
"                                          .........        ..............................                               ",
"                                          .........        ...............................                              ",
"                                            .......          ..........   .................                             ",
"                                            .......           .........   ..................#                           ",
"                                            .......           .........    ..................                           ",
"                                            .......           .........      ................                           ",
"                                            .......           .........      ................                           ",
"                                            .....               .......      ................                           ",
"                                            ....                .......      ..................                         ",
"                                            ....                .......      +..................                        ",
"                                            ....                .......        .................                        ",
"                                            ....                .......        ...................                      ",
"                                                                .....          ...................                      ",
"                                                                ....           ...................                      ",
"                                                                ....            ..................                      ",
"                                                                ....              ................                      ",
"                                                                ....$             ................                      ",
"                                                                ....              ................                      ",
"                                                                ....              ..................                    ",
"                                                                %...              ...................                   ",
"                                                                                  ...... ............                   ",
"                                                                                  ......  ...........                   ",
"                                                                                  ......   ..........                   ",
"                                                                                  ......    .........                   ",
"                                                                                  &.....    .........                   ",
"                                                                                    ....    .........                   ",
"                                                                                    ....    .........                   ",
"                                                                                    ....      .......                   ",
"                                                                                    ....      ........&                 ",
"                                                                                    ....*     .........                 ",
"                                                                                    ....      .........                 ",
"                                                                                    ....      .........                 ",
"                                                                                                .......                 ",
"                                                                                                 ......                 ",
"                                                                                                 ......                 ",
"                                                                                                 ......                 ",
"                                                                                                 ......                 ",
"                                                                                                   ....                 ",
"                                                                                                   ....                 ",
"                                                                                                   ....*                ",
"                                                                                                   ....                 ",
"                                                                                                   ....                 ",
"                                                                                                                        ",
"                                                                                                                        ",
"                                                                                                                        ",
"                                                                                                                        ",
"                                                                                                                        ",
"                                                                                                                        ",
"                                                                                                                        ",
"                                                                                                                        ",
"                                                                                                                        ",
"                                                                                                                        ",
"                                                                                                                        ",
"                                                                                                                        ",
"                                                                                                                        ",
"                                                                                                                        ",
"                                                                                                                        ",
"                                                                                                                        ",
"                                                                                                                        ",
"                                                                                                                        ",
"                                                                                                                        ",
"                                                                                                                        ",
"                                                                                                                        ",
"                                                                                                                        ",
"                                                                                                                        ",
"                                                                                                                        ",
"                                                                                                                        ",
"                                                                                                                        ",
"                                                                                                                        ",
"                                                                                                                        ",
"                                                                                                                        ",
"                                                                                                                        ",
"                                                                                                                        ",
"                                                                                                                        ",
"                                                                                                                        ",
"                                                                                                                        ",
"                                                                                                                        ",
"                                                                                                                        ",
"                                                                                                                        ",
"                                                                                                                        ",
"                                                                                                                        ",
"                                                                                                                        ",
"                                                                                                                        ",
"                                                                                                                        ",
"                                                                                                                        ",
"                                                                                                                        ",
"                                                                                                                        ",
"                                                                                                                        ",
"                                                                                                                        ",
"                                                                                                                        ",
"                                                                                                                        ",
"                                                                                                                        ",
"                                                                                                                        ",
"                                                                                                                        "};
