/* XPM */
static char * warp01_xpm[] = {
"120 120 6 1",
" 	c None",
".	c #050B0E",
"+	c #000000",
"@	c #0A0D0F",
"#	c #000204",
"$	c #000004",
"                                                                                                                        ",
"                                                                                                                        ",
"                                                                                                                        ",
"                                                                                                                        ",
"                                                                                                                        ",
"                                                                                                                        ",
"                                                                                                                        ",
"                                                                                                                        ",
"                                                                                                                        ",
"                                                                                                                        ",
"                                                                                                                        ",
"                                                                                                                        ",
"                                                                                                                        ",
"                                                                                                                        ",
"                                                                                                                        ",
"                                                                                                                        ",
"                                                                                                                        ",
"                                                                                                                        ",
"                                                                                                                        ",
"                                                                                                                        ",
"                                                                                                                        ",
"                                                                                                                        ",
"                                                                                                                        ",
"                                                                                                                        ",
"                                                                                                                        ",
"                                                                                                                        ",
"                                                                                                                        ",
"                                                                                                                        ",
"                                                                                                                        ",
"                                                                                                                        ",
"                                                                                                                        ",
"                                                                                                                        ",
"                                                                                                                        ",
"                                                                                                                        ",
"                                                                                                                        ",
"                                                                                                                        ",
"                                                                                                                        ",
"                                                                                                                        ",
"                                                                                                                        ",
"                                                                                                                        ",
"                                                                                                                        ",
"                                                                                                                        ",
"                                                                                                                        ",
"                                                                                                                        ",
"                                                                                                                        ",
"                                                                                                                        ",
"                                                                                                                        ",
"                                                                                                                        ",
"                                                                                                                        ",
"                                                                                                                        ",
"                                                                                                                        ",
"                                                                                                                        ",
"                                                                                                                        ",
"                                                                                                                        ",
"                                                                                                                        ",
"                                                                                                                        ",
"                                                                                                                        ",
"                                                                                                                        ",
"                                                                                                                        ",
"                                                                                                                        ",
"                                                                                                                        ",
"                                                                                                                        ",
"                                                                                                                        ",
"                                                                                                                        ",
"                   .+++                                                                                                 ",
"                   ++++                                                                                                 ",
"                   ++++                                                                                                 ",
"                   ++++@                                                                                                ",
"                   ++++                                                                                                 ",
"                 #+++++                                                                                                 ",
"                 ++++++                                                                                                 ",
"                 ++++++                                                                                                 ",
"                 ++++++                                                                                                 ",
"                 ++++++                                                                                                 ",
"               ++++++++++                                                                                               ",
"              ++++++++++++                                                                                              ",
"              ++++++++++++                                                                                              ",
"              ++++++++++++++                                                                                            ",
"              ++++++++++++++                                                                                            ",
"            #+++++++++++++++                                                                                            ",
"            ++++++++++++++++                                                                                            ",
"            +++++++++++++++++                                                                                           ",
"            +++++++++++++++++++                                                                                         ",
"            +++++++++++++++++++                                                                                         ",
"            +++++++++++++++++++                                                                                         ",
"            +++++++++++++++++++                                                                                         ",
"           ++++++++++++++++++++                                                                                         ",
"         ++++++++++++++++++++++++                                                                                       ",
"         ++++++++++++++++++++++++                                                                                       ",
"         ++++++++++++++++++++++++                   +++.                                                                ",
"         ++++++++++++++++++++++++                   ++++                                                                ",
"         +++++++++++++++++++++++++                  ++++                                                                ",
"         ++++++++++++++++++++++++++    ++++        @++++                                                                ",
"         +++++++++++++++++++++++++++   ++++         ++++                                                                ",
"         ++++++++++++++++++++++++++++++++++++       +++++#                                                              ",
"         +++++++++++++++++++++++++++++++++++++      ++++++                                                              ",
"         +++++++++++++++++++++++++++++++++++++      ++++++                                                              ",
"         +++++++++++++++++++++++++++++++++++++++++  ++++++      ++++                                                    ",
"         ++++++++++++++++++++++++++++++++++++++++++ ++++++      ++++                                                    ",
"         +++++++++++++++++++++++++++++++++++++++++++++++++++++  ++++                             +++.                   ",
"         ++++++++++++++++++++++++++++++++++++++++++++++++++++++ ++++                             ++++                   ",
"         ++++++++++++++++++++++++++++++++++++++++++++++++++++++++++++                            ++++                   ",
"         ++++++++++++++++++++++++++++++++++++++++++++++++++++++++++++++++                        ++++                   ",
"           ++++++++++++++++++++++++++++++++++++++++++++++++++++++++++++++                        ++++                   ",
"            ++++++++++++++++++++++++++++++++++++++++++++++++++++++++++++++++++++            ++++++++++                  ",
"            +++++++++++++++++++++++++++++++++++++++++++++++++++++++++++++++++++++           +++++++++++                 ",
"            +++++++++++++++++++++++++++++++++++++++++++++++++++++++++++++++++++++          +++++++++++++                ",
"            ++++++++++++++++++++++++++++++++++++++++++++++++++++++++++++++++++++++++++++++++++++++++++++++              ",
"            ++++++++++++++++++++++++++++++++++++++++++++++++++++++++++++++++++++++++++++++++++++++++++++++              ",
"            ++++++++++++++++++++++++++++++++++++++++++++++++++++++++++++++++++++++++++++++++++++++++++++++              ",
"            $+++++++++++++++++++++++++++++++++++++++++++++++++++++++++++++++++++++++++++++++++++++++++++++              ",
"              ++++++++++++++++++++++++++++++++++++++++++++++++++++++++++++++++++++++++++++++++++++++++++++              ",
"              ++++++++++++++++++++++++++++++++++++++++++++++++++++++++++++++++++++++++++++++++++++++++++++              ",
"              ++++++++++++++++++++++++++++++++++++++++++++++++++++++++++++++++++++++++++++++++++++++++++++              ",
"              ++++++++++++++++++++++++++++++++++++++++++++++++++++++++++++++++++++++++++++++++++++++++++++              ",
"               ++++++++++++++++++++++++++++++++++++++++++++++++++++++++++++++++++++++++++++++++++++++++++               ",
"                 ++++++++++++++++++++++++++++++++++++++++++++++++++++++++++++++++++++++++++++++++++++++                 ",
"                 ++++++++++++++++++++++++++++++++++++++++++++++++++++++++++++++++++++++++++++++++++++++                 ",
"                   ++++++++++++++++++++++++++++++++++++++++++++++++++++++++++++++++++++++++++++++++++                   ",
"                   ++++++++++++++++++++++++++++++++++++++++++++++++++++++++++++++++++++++++++++++++++                   "};
