/* XPM */
static char * warp02_xpm[] = {
"120 120 9 1",
" 	c None",
".	c #000000",
"+	c #060B0F",
"@	c #030709",
"#	c #000204",
"$	c #010304",
"%	c #000001",
"&	c #020304",
"*	c #000509",
"                                                                                                                        ",
"                                                                                                                        ",
"                                                                                                                        ",
"                                                                                                                        ",
"                                                                                                                        ",
"                                                                                                                        ",
"                                                                                                                        ",
"                                                                                                                        ",
"                                                                                                                        ",
"                                                                                                                        ",
"                                                                                                                        ",
"                                                                                                                        ",
"                                                                                                                        ",
"                                                                                                                        ",
"                                                                                                                        ",
"                                                                                                                        ",
"                                                                                                                        ",
"                                                                                                                        ",
"                                                                                                                        ",
"                                     ...+                                                                               ",
"                                     ....                                                                               ",
"                                    .....                                                                               ",
"                                   ......                                                                               ",
"                                  .......                                                                               ",
"                                @........                                                                               ",
"                                .........                                                                               ",
"                                .........                                                                               ",
"                                .........                                                                               ",
"                                .........                                                                               ",
"                              ...........                                                                               ",
"                             ............                                                                               ",
"                             ............                                                                               ",
"                           ..............                                                                               ",
"                           ..............                                                                               ",
"                           ..............                                                                               ",
"                           ..............                                                                               ",
"                          ...............                                                                               ",
"                        .................                                                                               ",
"                        .................                                                                               ",
"                        .................                                                                               ",
"                        .................                                                                               ",
"                        .................                                                                               ",
"                      ...................   ....                                                                        ",
"                      ...................   ....                                                                        ",
"                      ...................   ....                                                                        ",
"                      ...................   ....                                                                        ",
"                      ...................   .....                                                                       ",
"                      ...................   .......                                                                     ",
"                      ...................   .......                                                                     ",
"                    .....................   .......                                                                     ",
"                   ......................   .......                                                                     ",
"                   ......................   .......                                                                     ",
"                   ...................... .........                                                                     ",
"                   ...................... .........                                                                     ",
"                 #....................... ..........$           +...                                                    ",
"                 ........................ ...........           ....                                                    ",
"                 ........................%...........           ....                                                    ",
"                 ....................................           ....+                                                   ",
"                 ....................................           ....                                                    ",
"                 ....................................         &.....                                                    ",
"                 ....................................         ......                                                    ",
"                ......................................        .......                                                   ",
"               .........................................      .........                                                 ",
"              ..........................................      .........                                                 ",
"            *...........................................      .........                                                 ",
"            ............................................      .........                                                 ",
"            ............................................     ..........                                                 ",
"            ............................................   ............                                                 ",
"            ............................................   ............                                                 ",
"            .............................................  .............#    ...+                                       ",
"            .............................................. ..............    ....                                       ",
"           ..............................................................    ....                                       ",
"         ................................................................   +....                                       ",
"         ................................................................    ....                                       ",
"         ................................................................    .....&                                     ",
"         ................................................................    ......                                     ",
"         .................................................................   ......                                     ",
"         ..................................................................  ......                                     ",
"         ................................................................... ......                                     ",
"         ............................................................................                                   ",
"         .............................................................................                                  ",
"         .............................................................................                                  ",
"         .............................................................................                                  ",
"         .............................................................................                                  ",
"         ..............................................................................                                 ",
"         ...............................................................................                                ",
"         ................................................................................                               ",
"         .................................................................................                              ",
"         ..................................................................................                             ",
"         ...................................................................................                            ",
"         ....................................................................................                           ",
"         .....................................................................................                          ",
"         ......................................................................................                         ",
"         .......................................................................................                        ",
"         ........................................................................................                       ",
"         .........................................................................................                      ",
"         ..........................................................................................                     ",
"         ...........................................................................................                    ",
"         ............................................................................................                   ",
"         .............................................................................................*                 ",
"         ..............................................................................................                 ",
"         ..............................................................................................                 ",
"         ..............................................................................................                 ",
"           ............................................................................................                 ",
"            .............................................................................................               ",
"            ..............................................................................................              ",
"            ..............................................................................................              ",
"            ..............................................................................................              ",
"            ..............................................................................................              ",
"            ..............................................................................................              ",
"            ..............................................................................................              ",
"            ..............................................................................................              ",
"            ..............................................................................................              ",
"              ............................................................................................              ",
"              ............................................................................................              ",
"               ...........................................................................................              ",
"                 .........................................................................................              ",
"                 .........................................................................................              ",
"                     ...................................................................................                ",
"                      .................................................................................                 "};
