/* XPM */
static char * warp05_xpm[] = {
"120 120 5 1",
" 	c None",
".	c #000000",
"+	c #000204",
"@	c #000509",
"#	c #000001",
"                                                                                                                        ",
"                                                                                                                        ",
"                                                                                                                        ",
"                                                                                                                        ",
"                                                                                                                        ",
"                                                                                                                        ",
"                                                                                                                        ",
"                                          .............+                                                                ",
"                                          ..............                                                                ",
"                                   ............................                                                         ",
"                                  .............................                                                         ",
"                                  ..............................                                                        ",
"                             @......................................                                                    ",
"                             .......................................                                                    ",
"                            ..........................................                                                  ",
"                           ............................................                                                 ",
"                          ...............   ...........................                                                 ",
"                      ..................+   +............................                                               ",
"                      ..............               ......................                                               ",
"                      ..............                .......................                                             ",
"                      .............                 ........................                                            ",
"                     .......                             ...................                                            ",
"                   .........                             .....................                                          ",
"                   .....                                        ..............                                          ",
"                   ....                                         ................                                        ",
"                   #...                                          ................                                       ",
"                                                                     ............                                       ",
"                                                                      ...........                                       ",
"                                                                       ..........                                       ",
"                                                                        .........                                       ",
"                                                                         ........                                       ",
"                                                                          .......                                       ",
"                                                                           ......                                       ",
"                                                                            .....                                       ",
"                                                                             ....                                       ",
"                                                                             ....                                       ",
"                                                                             ....                                       ",
"                                                                             ....                                       ",
"                                                                                                                        ",
"                                                                                                                        ",
"                                                                                                                        ",
"                                                                                                                        ",
"                                                                                                                        ",
"                                                                                                                        ",
"                                                                                                                        ",
"                                                                                                                        ",
"                                                                                                                        ",
"                                                                                                                        ",
"                                                                                                                        ",
"                                                                                                                        ",
"                                                                                                                        ",
"                                                                                                                        ",
"                                                                                                                        ",
"                                                                                                                        ",
"                                                                                                                        ",
"                                                                                                                        ",
"                                                                                                                        ",
"                                                                                                                        ",
"                                                                                                                        ",
"                                                                                                                        ",
"                                                                                                                        ",
"                                                                                                                        ",
"                                                                                                                        ",
"                                                                                                                        ",
"                                                                                                                        ",
"                                                                                                                        ",
"                                                                                                                        ",
"                                                                                                                        ",
"                                                                                                                        ",
"                                                                                                                        ",
"                                                                                                                        ",
"                                                                                                                        ",
"                                                                                                                        ",
"                                                                                                                        ",
"                                                                                                                        ",
"                                                                                                                        ",
"                                                                                                                        ",
"                                                                                                                        ",
"                                                                                                                        ",
"                                                                                                                        ",
"                                                                                                                        ",
"                                                                                                                        ",
"                                                                                                                        ",
"                                                                                                                        ",
"                                                                                                                        ",
"                                                                                                                        ",
"                                                                                                                        ",
"                                                                                                                        ",
"                                                                                                                        ",
"                                                                                                                        ",
"                                                                                                                        ",
"                                                                                                                        ",
"                                                                                                                        ",
"                                                                                                                        ",
"                                                                                                                        ",
"                                                                                                                        ",
"                                                                                                                        ",
"                                                                                                                        ",
"                                                                                                                        ",
"                                                                                                                        ",
"                                                                                                                        ",
"                                                                                                                        ",
"                                                                                                                        ",
"                                                                                                                        ",
"                                                                                                                        ",
"                                                                                                                        ",
"                                                                                                                        ",
"                                                                                                                        ",
"                                                                                                                        ",
"                                                                                                                        ",
"                                                                                                                        ",
"                                                                                                                        ",
"                                                                                                                        ",
"                                                                                                                        ",
"                                                                                                                        ",
"                                                                                                                        ",
"                                                                                                                        ",
"                                                                                                                        ",
"                                                                                                                        ",
"                                                                                                                        "};
