/* XPM */
static char * warp03_xpm[] = {
"120 120 11 1",
" 	c None",
".	c #000000",
"+	c #000204",
"@	c #000509",
"#	c #03050F",
"$	c #000001",
"%	c #00000F",
"&	c #000004",
"*	c #010304",
"=	c #020304",
"-	c #00000A",
"                                                                                                                        ",
"                                                                                                                        ",
"                                                                                                                        ",
"                                                                                                                        ",
"                                                                                                                        ",
"                                                                                                                        ",
"                                                                                                                        ",
"                                                                                                                        ",
"                                                                                                                        ",
"                                   ...............                                                                      ",
"                                  .................                                                                     ",
"                                  .................                                                                     ",
"                                .......................+                                                                ",
"                                ........................                                                                ",
"                              ..............................                                                            ",
"                             ................................                                                           ",
"                             ................................                                                           ",
"                           ......................................@                                                      ",
"                           .......................................                                                      ",
"                         ..........................................                                                     ",
"                        ............................................                                                    ",
"                        .............................................                                                   ",
"                      ................................................                                                  ",
"                      .................................................                                                 ",
"                      ..................................................                                                ",
"                      ...................................................                                               ",
"                     .....................................................                                              ",
"                   ........................................................                                             ",
"                   .........................................................                                            ",
"                   ..........................................................@                                          ",
"                   ...........................................................                                          ",
"                   ...........................................................                                          ",
"                 .............................................................                                          ",
"                 .............................................................                                          ",
"                 ...............................................................                                        ",
"                 ................................................................                                       ",
"                 ................................................................                                       ",
"                 ................................................................                                       ",
"                 ................................................................                                       ",
"               ...................................................................                                      ",
"              .....................................................................                                     ",
"              ......................................................................                                    ",
"              .......................................................................                                   ",
"              ........................................................................                                  ",
"              .........................................................................@                                ",
"              ..........................................................................                                ",
"              ..........................................................................                                ",
"              ..........................................................................                                ",
"              ..........................................................................                                ",
"              ....... ....................................................................                              ",
"              .......  ....................................................................                             ",
"              .......   ...................................................................                             ",
"              .......   .....................................................................                           ",
"              .......   .....................................................................                           ",
"              .......   .......................................................................                         ",
"              .......   ........................................................................                        ",
"              .......   ........................................................................                        ",
"              .......   ........................................................................                        ",
"                .....   ........................................................................                        ",
"                 ....   ........................................................................                        ",
"                 ....    .......................................................................                        ",
"                 ....      .....................................................................                        ",
"                #....      .......................................................................                      ",
"                 ....      ......$..............$.................................................                      ",
"                 ....      ......  ............. .................................................                      ",
"                 ...%      ......  ............. .................................................                      ",
"                           ......    ........... ..................................................                     ",
"                           ......    ...........  ...................................................                   ",
"                           ......      .........   ..................................................                   ",
"                           ......      .........    .................................................                   ",
"                           &.....      .........    .................................................                   ",
"                             ....      .........    .................................................                   ",
"                             ....#     .........    .................................................                   ",
"                             ....        .......    .................................................                   ",
"                             ....         ......    ..................................................+                 ",
"                             %...          .....    *..................................................                 ",
"                                            ....      .................................................                 ",
"                                            ....#     .................................................                 ",
"                                            ....      .................................................                 ",
"                                            ....      .................................................                 ",
"                                            %...      .................................................                 ",
"                                                      .................................................                 ",
"                                                      .................................................                 ",
"                                                        .......$.......................................                 ",
"                                                         ...... .......................................                 ",
"                                                          ..... .......................................                 ",
"                                                           .... .......................................                 ",
"                                                           .... .......................................                 ",
"                                                           .... .......................................                 ",
"                                                           .... .......................................                 ",
"                                                           %...  .....................................&                 ",
"                                                                   ..................................                   ",
"                                                                   ..................................                   ",
"                                                                   ..................................                   ",
"                                                                   ..................................                   ",
"                                                                   =................................                    ",
"                                                                     .............................                      ",
"                                                                     .............................                      ",
"                                                                     .............................                      ",
"                                                                     .............................                      ",
"                                                                     ............................-                      ",
"                                                                     ...........................                        ",
"                                                                     ..........................                         ",
"                                                                       .......................                          ",
"                                                                        .....................                           ",
"                                                                         ...................                            ",
"                                                                          .................                             ",
"                                                                           ...............                              ",
"                                                                            .............                               ",
"                                                                             ...........                                ",
"                                                                              .........                                 ",
"                                                                               .......                                  ",
"                                                                               ......                                   ",
"                                                                               .....                                    ",
"                                                                               ....                                     ",
"                                                                               %...                                     ",
"                                                                                                                        ",
"                                                                                                                        ",
"                                                                                                                        ",
"                                                                                                                        "};
