/* XPM */
static char * bala_xpm[] = {
"18 18 6 1",
" 	c None",
".	c #000000",
"+	c #FFFFFF",
"@	c #D8D8D8",
"#	c #B6B6B6",
"$	c #14130E",
"       ....       ",
"     ........     ",
"   ..++....++..   ",
"  .+++++..+++++.  ",
" ..+++++..+++++.. ",
" ..@@++@..@++@@.. ",
" ....@#....@@.... ",
"...++........++...",
"..++++......++++..",
".+++++......+++++.",
".@+++++....+++++@.",
" .@@++@....@++@@. ",
" ...+@$++++$@+... ",
" .....++++++..... ",
"  ....@++++@....  ",
"   ....++++....   ",
"     ..@@@@..     ",
"       ....       "};
